HIERARCHY
ROOT Pelvis
{
	OFFSET 0.000000 0.000000 0.000000
	CHANNELS 6 Xposition Yposition Zposition Xrotation Yrotation Zrotation
	JOINT LeftUpLeg_virtual
	{
		OFFSET 0.000000 0.000000 0.000000
		CHANNELS 3 Xrotation Yrotation Zrotation
		JOINT LeftUpLeg
		{
			OFFSET 18.735201 -5.666702 -4.541200
			CHANNELS 3 Xrotation Yrotation Zrotation
			JOINT LeftLeg
			{
				OFFSET -0.021200 -31.938179 0.493100
				CHANNELS 3 Xrotation Yrotation Zrotation
				JOINT LeftFoot
				{
					OFFSET 0.021200 -31.938179 -4.336299
					CHANNELS 3 Xrotation Yrotation Zrotation
					JOINT LeftToeBase
					{
						OFFSET 0.943001 -26.722000 15.023500
						CHANNELS 3 Xrotation Yrotation Zrotation
						End Site
						{
							OFFSET 0 0 0
						}
					}
				}
			}
		}
	}
	JOINT RightUpLeg_virtual
	{
		OFFSET 0.000000 0.000000 0.000000
		CHANNELS 3 Xrotation Yrotation Zrotation
		JOINT RightUpLeg
		{
			OFFSET -18.735201 -5.666702 -4.541200
			CHANNELS 3 Xrotation Yrotation Zrotation
			JOINT RightLeg
			{
				OFFSET 0.018946 -31.938133 0.493100
				CHANNELS 3 Xrotation Yrotation Zrotation
				JOINT RightFoot
				{
					OFFSET -0.018946 -31.938126 -4.336299
					CHANNELS 3 Xrotation Yrotation Zrotation
					JOINT RightToeBase
					{
						OFFSET -0.943001 -26.722004 15.023500
						CHANNELS 3 Xrotation Yrotation Zrotation
						End Site
						{
							OFFSET 0 0 0
						}
					}
				}
			}
		}
	}
	JOINT Hips_virtual
	{
		OFFSET 0.000000 0.000000 0.000000
		CHANNELS 3 Xrotation Yrotation Zrotation
		JOINT Hips
		{
			OFFSET -0.000000 -0.000000 -0.000000
			CHANNELS 3 Xrotation Yrotation Zrotation
			JOINT Spine
			{
				OFFSET 0.000000 10.199997 -0.299500
				CHANNELS 3 Xrotation Yrotation Zrotation
				JOINT Spine1
				{
					OFFSET 0.000000 11.900002 -1.516600
					CHANNELS 3 Xrotation Yrotation Zrotation
					JOINT Spine2
					{
						OFFSET 0.000000 13.600006 -2.842500
						CHANNELS 3 Xrotation Yrotation Zrotation
						JOINT Neck_virtual
						{
							OFFSET 0.000000 0.000000 0.000000
							CHANNELS 3 Xrotation Yrotation Zrotation
							JOINT Neck
							{
								OFFSET 0.000000 9.624100 -2.890100
								CHANNELS 3 Xrotation Yrotation Zrotation
								JOINT Head
								{
									OFFSET 0.000000 14.068802 -1.351900
									CHANNELS 3 Xrotation Yrotation Zrotation
									End Site
									{
										OFFSET 0 0 0
									}
								}
							}
						}
						JOINT LeftShoulder_virtual
						{
							OFFSET 0.000000 0.000000 0.000000
							CHANNELS 3 Xrotation Yrotation Zrotation
							JOINT LeftShoulder
							{
								OFFSET 15.263000 10.923401 -0.547700
								CHANNELS 3 Xrotation Yrotation Zrotation
								JOINT LeftArm
								{
									OFFSET 25.438599 -2.830597 -13.032500
									CHANNELS 3 Xrotation Yrotation Zrotation
									JOINT LeftForeArm
									{
										OFFSET 29.960503 0.000000 0.000000
										CHANNELS 3 Xrotation Yrotation Zrotation
										JOINT LeftHand
										{
											OFFSET 27.849251 0.000000 0.000000
											CHANNELS 3 Xrotation Yrotation Zrotation
											End Site
											{
												OFFSET 0 0 0
											}
										}
									}
								}
							}
						}
						JOINT RightShoulder_virtual
						{
							OFFSET 0.000000 0.000000 0.000000
							CHANNELS 3 Xrotation Yrotation Zrotation
							JOINT RightShoulder
							{
								OFFSET -15.263000 10.923401 -0.547700
								CHANNELS 3 Xrotation Yrotation Zrotation
								JOINT RightArm
								{
									OFFSET -25.438599 -2.830597 -13.032500
									CHANNELS 3 Xrotation Yrotation Zrotation
									JOINT RightForeArm
									{
										OFFSET -29.960503 0.000000 0.000000
										CHANNELS 3 Xrotation Yrotation Zrotation
										JOINT RightHand
										{
											OFFSET -27.849251 0.000000 0.000000
											CHANNELS 3 Xrotation Yrotation Zrotation
											End Site
											{
												OFFSET 0 0 0
											}
										}
									}
								}
							}
						}
					}
				}
			}
		}
	}
}
MOTION
Frames: 7
Frame Time: 0.03333333
-16.445396 78.238602 1.642258 0.000000 0.000000 0.000000 -5.054124 -41.173374 2.300247 -29.539158 2.942470 27.955293 53.011786 -10.593517 8.522912 -22.056498 -9.564130 -31.562909 0.000000 0.000000 0.000000 -5.054124 -41.173374 2.300247 -29.878915 -2.055673 -41.046712 65.894387 -4.052075 -8.820344 -19.806051 -11.546244 32.216766 0.000000 0.000000 0.000000 -5.054124 -41.173374 2.300247 0.000000 -0.000002 0.000000 9.613243 6.646536 -1.507245 2.662900 0.259931 -2.295165 0.000000 0.000000 0.000000 2.669060 0.331679 -2.307771 3.331861 3.504589 -0.553880 0.000000 0.000000 0.000000 2.669060 0.331679 -2.307771 2.384945 -0.558994 -14.184837 -68.573726 -0.972346 -38.581966 -179.999568 -71.804297 -179.999554 0.000000 0.000000 0.000000 2.669060 0.331679 -2.307771 2.634944 12.163991 -12.194977 -62.879350 19.380921 84.395764 -0.000747 85.889342 0.000779 0.000000 0.000000 0.000000 
-17.825031 78.771011 1.179317 0.000000 0.000000 0.000000 -6.217036 -41.586590 1.723847 -28.901836 2.603294 27.997714 51.806445 -10.947560 9.518389 -16.530441 -9.903819 -32.771422 0.000000 0.000000 0.000000 -6.217036 -41.586590 1.723847 -29.212053 -3.091318 -41.200784 66.233328 -5.447426 -8.219439 -21.468685 -9.259889 31.398363 0.000000 0.000000 0.000000 -6.217036 -41.586590 1.723847 0.000000 0.000000 0.000001 9.576871 6.344698 -1.039088 2.766067 -0.356992 -2.318341 0.000000 0.000000 0.000000 2.765117 -0.254301 -2.356228 3.449611 3.567063 -0.576848 0.000000 0.000000 0.000000 2.765117 -0.254301 -2.356228 2.217711 0.696463 -13.443602 -68.029736 -0.403276 -40.075718 -179.999623 -71.283215 -179.999636 0.000000 0.000000 0.000000 2.765117 -0.254301 -2.356228 2.599453 11.718729 -12.158731 -64.262907 18.736196 84.603142 0.000003 87.058151 -0.000015 0.000000 0.000000 0.000000 
-19.309898 79.713081 0.655411 0.000000 0.000000 0.000000 -6.727051 -41.915105 1.648002 -29.335522 1.861747 27.518591 50.681619 -11.725363 9.793826 -8.206885 -9.823241 -32.130893 0.000000 0.000000 0.000000 -6.727051 -41.915105 1.648002 -28.418612 -4.463295 -40.730669 65.559414 -5.593224 -7.775031 -22.616396 -8.690846 30.017431 0.000000 0.000000 0.000000 -6.727051 -41.915105 1.648002 0.000000 0.000000 0.000000 9.545364 6.070121 -0.897202 2.771247 -0.888563 -2.411322 0.000000 0.000000 0.000000 2.769533 -0.770335 -2.469700 3.456078 3.607106 -0.545142 0.000000 0.000000 0.000000 2.769533 -0.770335 -2.469700 2.040250 1.891032 -12.727012 -66.041885 -0.227477 -42.512723 179.999800 -71.385346 179.999827 0.000000 0.000000 0.000000 2.769533 -0.770335 -2.469700 2.522554 10.738738 -12.141176 -65.351270 18.105129 85.470016 0.001390 88.672931 -0.001179 0.000000 0.000000 0.000000 
-20.745525 80.779526 0.234379 0.000000 0.000000 0.000000 -6.650356 -42.291428 1.919511 -31.066149 1.007179 26.222281 52.221919 -11.113666 9.784132 -2.456217 -9.861818 -28.481539 0.000000 0.000000 0.000000 -6.650356 -42.291428 1.919511 -27.583413 -5.771318 -39.720057 64.226523 -5.848659 -7.552716 -23.343625 -8.520588 28.724210 0.000000 0.000000 0.000000 -6.650356 -42.291428 1.919511 0.000000 0.000000 -0.000001 9.475521 5.922294 -0.911618 2.640294 -1.180710 -2.495267 0.000000 0.000000 0.000000 2.639780 -1.060862 -2.565575 3.374431 3.622778 -0.474888 0.000000 0.000000 0.000000 2.639780 -1.060862 -2.565575 1.997597 2.570321 -12.655316 -62.993844 -0.765870 -44.829158 -179.999800 -72.099545 -179.999814 0.000000 0.000000 0.000000 2.639780 -1.060862 -2.565575 2.424930 9.529669 -12.215775 -65.171862 17.733927 86.301981 179.995907 89.236640 -179.995893 0.000000 0.000000 0.000000 
-22.033222 81.763702 0.013973 0.000000 0.000000 0.000000 -6.205467 -42.718298 2.337928 -33.508864 0.250667 24.889957 54.605914 -10.487741 9.370500 0.388015 -10.846900 -25.605227 0.000000 0.000000 0.000000 -6.205467 -42.718298 2.337928 -26.675749 -6.823202 -38.383706 62.582312 -6.149012 -7.522143 -23.745513 -8.679566 27.674448 0.000000 0.000000 0.000000 -6.205467 -42.718298 2.337928 0.000000 -0.000001 0.000000 9.372670 5.929291 -0.974013 2.439207 -1.180698 -2.487359 0.000000 0.000000 0.000000 2.440257 -1.069193 -2.559241 3.228590 3.601049 -0.363138 0.000000 0.000000 0.000000 2.440257 -1.069193 -2.559241 2.096309 2.363134 -13.067364 -59.276992 -1.273570 -46.337055 179.999786 -73.081057 179.999800 0.000000 0.000000 0.000000 2.440257 -1.069193 -2.559241 2.343938 8.432487 -12.229246 -63.542322 17.800851 86.645478 179.999185 86.645963 -179.999199 0.000000 0.000000 0.000000 
-23.117073 82.464752 0.067703 0.000000 0.000000 0.000000 -5.590499 -43.064602 2.767848 -36.214418 -0.315540 24.128246 57.097417 -10.599818 8.016772 -0.731279 -12.920205 -25.114025 0.000000 0.000000 0.000000 -5.590499 -43.064602 2.767848 -25.701266 -7.558811 -37.127638 61.075777 -6.408467 -7.543246 -24.045867 -9.065789 26.991572 0.000000 0.000000 0.000000 -5.590499 -43.064602 2.767848 0.000000 0.000000 0.000000 9.249884 6.074237 -1.008749 2.248249 -0.918863 -2.345092 0.000000 0.000000 0.000000 2.251026 -0.821231 -2.409269 3.033130 3.537696 -0.217482 0.000000 0.000000 0.000000 2.251026 -0.821231 -2.409269 2.252497 1.274539 -13.482033 -55.372699 -1.079280 -47.064897 -179.999937 -73.829509 -179.999950 0.000000 0.000000 0.000000 2.251026 -0.821231 -2.409269 2.335084 7.578150 -11.773545 -60.812869 18.660570 86.481226 -179.999841 83.439981 179.999855 0.000000 0.000000 0.000000 
-24.019756 82.721153 0.418034 0.000000 0.000000 0.000000 -4.927094 -43.250342 3.064325 -38.660906 -0.523984 24.013359 58.400494 -11.471261 6.130237 -4.049723 -14.590898 -27.632386 0.000000 0.000000 0.000000 -4.927094 -43.250342 3.064325 -24.746146 -8.044809 -36.161402 60.121770 -6.271776 -7.526217 -24.499392 -9.857543 26.651058 0.000000 0.000000 0.000000 -4.927094 -43.250342 3.064325 0.000000 0.000001 0.000000 9.106013 6.333247 -0.928989 2.081400 -0.470166 -2.078975 0.000000 0.000000 0.000000 2.085820 -0.387742 -2.129601 2.834206 3.454606 -0.084537 0.000000 0.000000 0.000000 2.085820 -0.387742 -2.129601 2.401849 -0.181779 -13.661525 -51.890689 -0.264365 -47.283917 179.999609 -74.149408 179.999623 0.000000 0.000000 0.000000 2.085820 -0.387742 -2.129601 2.454788 6.976030 -10.490368 -57.510002 20.381230 85.938956 179.997478 80.315033 -179.997505 0.000000 0.000000 0.000000 
